<mxfile host="app.diagrams.net" modified="2021-08-22T13:41:58.170Z" agent="5.0 (Windows)" etag="PXIW1kQQHoc2T5vISDGl" version="14.9.8" type="github">
  <diagram id="C5RBs43oDa-KdzZeNtuy" name="Page-1">
    <mxGraphModel dx="2062" dy="1140" grid="1" gridSize="10" guides="1" tooltips="1" connect="1" arrows="1" fold="1" page="1" pageScale="1" pageWidth="827" pageHeight="1169" math="0" shadow="0">
      <root>
        <mxCell id="WIyWlLk6GJQsqaUBKTNV-0" />
        <mxCell id="WIyWlLk6GJQsqaUBKTNV-1" parent="WIyWlLk6GJQsqaUBKTNV-0" />
        <mxCell id="WIyWlLk6GJQsqaUBKTNV-2" value="" style="rounded=0;html=1;jettySize=auto;orthogonalLoop=1;fontSize=11;endArrow=block;endFill=0;endSize=8;strokeWidth=1;shadow=0;labelBackgroundColor=none;edgeStyle=orthogonalEdgeStyle;entryX=0.5;entryY=0;entryDx=0;entryDy=0;" parent="WIyWlLk6GJQsqaUBKTNV-1" source="WIyWlLk6GJQsqaUBKTNV-3" target="qLdOe8KvhBBSZUDHnRQA-1" edge="1">
          <mxGeometry relative="1" as="geometry">
            <mxPoint x="220" y="170" as="targetPoint" />
          </mxGeometry>
        </mxCell>
        <mxCell id="WIyWlLk6GJQsqaUBKTNV-3" value="&lt;div&gt;Queue for game&lt;/div&gt;" style="rounded=1;whiteSpace=wrap;html=1;fontSize=12;glass=0;strokeWidth=1;shadow=0;" parent="WIyWlLk6GJQsqaUBKTNV-1" vertex="1">
          <mxGeometry x="160" y="80" width="120" height="40" as="geometry" />
        </mxCell>
        <mxCell id="qLdOe8KvhBBSZUDHnRQA-4" style="edgeStyle=orthogonalEdgeStyle;rounded=0;orthogonalLoop=1;jettySize=auto;html=1;" edge="1" parent="WIyWlLk6GJQsqaUBKTNV-1" source="qLdOe8KvhBBSZUDHnRQA-1" target="qLdOe8KvhBBSZUDHnRQA-2">
          <mxGeometry relative="1" as="geometry" />
        </mxCell>
        <mxCell id="qLdOe8KvhBBSZUDHnRQA-1" value="Select Champion" style="rounded=1;whiteSpace=wrap;html=1;" vertex="1" parent="WIyWlLk6GJQsqaUBKTNV-1">
          <mxGeometry x="160" y="160" width="120" height="40" as="geometry" />
        </mxCell>
        <mxCell id="qLdOe8KvhBBSZUDHnRQA-5" style="edgeStyle=orthogonalEdgeStyle;rounded=0;orthogonalLoop=1;jettySize=auto;html=1;" edge="1" parent="WIyWlLk6GJQsqaUBKTNV-1" source="qLdOe8KvhBBSZUDHnRQA-2" target="qLdOe8KvhBBSZUDHnRQA-3">
          <mxGeometry relative="1" as="geometry" />
        </mxCell>
        <mxCell id="qLdOe8KvhBBSZUDHnRQA-9" style="edgeStyle=orthogonalEdgeStyle;rounded=0;orthogonalLoop=1;jettySize=auto;html=1;" edge="1" parent="WIyWlLk6GJQsqaUBKTNV-1" source="qLdOe8KvhBBSZUDHnRQA-2" target="qLdOe8KvhBBSZUDHnRQA-7">
          <mxGeometry relative="1" as="geometry" />
        </mxCell>
        <mxCell id="qLdOe8KvhBBSZUDHnRQA-2" value="&lt;div&gt;Draft phase&lt;/div&gt;" style="rounded=1;whiteSpace=wrap;html=1;" vertex="1" parent="WIyWlLk6GJQsqaUBKTNV-1">
          <mxGeometry x="160" y="240" width="120" height="40" as="geometry" />
        </mxCell>
        <mxCell id="qLdOe8KvhBBSZUDHnRQA-6" style="edgeStyle=orthogonalEdgeStyle;rounded=0;orthogonalLoop=1;jettySize=auto;html=1;" edge="1" parent="WIyWlLk6GJQsqaUBKTNV-1" source="qLdOe8KvhBBSZUDHnRQA-3" target="qLdOe8KvhBBSZUDHnRQA-2">
          <mxGeometry relative="1" as="geometry" />
        </mxCell>
        <mxCell id="qLdOe8KvhBBSZUDHnRQA-8" style="edgeStyle=orthogonalEdgeStyle;rounded=0;orthogonalLoop=1;jettySize=auto;html=1;" edge="1" parent="WIyWlLk6GJQsqaUBKTNV-1" source="qLdOe8KvhBBSZUDHnRQA-3" target="qLdOe8KvhBBSZUDHnRQA-7">
          <mxGeometry relative="1" as="geometry" />
        </mxCell>
        <mxCell id="qLdOe8KvhBBSZUDHnRQA-3" value="Combat phase" style="rounded=1;whiteSpace=wrap;html=1;" vertex="1" parent="WIyWlLk6GJQsqaUBKTNV-1">
          <mxGeometry x="160" y="320" width="120" height="40" as="geometry" />
        </mxCell>
        <mxCell id="qLdOe8KvhBBSZUDHnRQA-7" value="&lt;div&gt;Outcome&lt;/div&gt;" style="rounded=1;whiteSpace=wrap;html=1;" vertex="1" parent="WIyWlLk6GJQsqaUBKTNV-1">
          <mxGeometry x="320" y="280" width="120" height="40" as="geometry" />
        </mxCell>
      </root>
    </mxGraphModel>
  </diagram>
</mxfile>
